<svg width="25" height="25" viewBox="0 0 25 25" fill="none" xmlns="http://www.w3.org/2000/svg">
<g id="Icon">
<path id="icon" fill-rule="evenodd" clip-rule="evenodd" d="M15.8102 21.5298C15.7102 22.2098 15.0902 22.7498 14.3502 22.7498H10.6502C9.91023 22.7498 9.29023 22.2098 9.20023 21.4798L8.93023 19.5898C8.66023 19.4498 8.40023 19.2998 8.14023 19.1298L6.34023 19.8498C5.64023 20.1098 4.87023 19.8198 4.53023 19.1998L2.70023 16.0298C2.35023 15.3698 2.50023 14.5898 3.06023 14.1498L4.59023 12.9598C4.58023 12.8098 4.57023 12.6598 4.57023 12.4998C4.57023 12.3498 4.58023 12.1898 4.59023 12.0398L3.07023 10.8498C2.48023 10.3998 2.33023 9.58977 2.70023 8.96977L4.55023 5.77977C4.89023 5.15977 5.66023 4.87977 6.34023 5.14977L8.15023 5.87977C8.41023 5.70977 8.67023 5.55977 8.93023 5.41977L9.20023 3.50977C9.29023 2.80977 9.91023 2.25977 10.6402 2.25977H14.3402C15.0802 2.25977 15.7002 2.79977 15.7902 3.52977L16.0602 5.41977C16.3302 5.55977 16.5902 5.70977 16.8502 5.87977L18.6502 5.15977C19.3602 4.89977 20.1302 5.18977 20.4702 5.80977L22.3102 8.98977C22.6702 9.64977 22.5102 10.4298 21.9502 10.8698L20.4302 12.0598C20.4402 12.2098 20.4502 12.3598 20.4502 12.5198C20.4502 12.6798 20.4402 12.8298 20.4302 12.9798L21.9502 14.1698C22.5102 14.6198 22.6702 15.3998 22.3202 16.0298L20.4602 19.2498C20.1202 19.8698 19.3502 20.1498 18.6602 19.8798L16.8602 19.1598C16.6002 19.3298 16.3402 19.4798 16.0802 19.6198L15.8102 21.5298ZM11.1202 20.7498H13.8802L14.2502 18.1998L14.7802 17.9798C15.2202 17.7998 15.6602 17.5398 16.1202 17.1998L16.5702 16.8598L18.9502 17.8198L20.3302 15.4198L18.3002 13.8398L18.3702 13.2798L18.3733 13.2528C18.4023 13.0025 18.4302 12.7604 18.4302 12.4998C18.4302 12.2298 18.4002 11.9698 18.3702 11.7198L18.3002 11.1598L20.3302 9.57977L18.9402 7.17977L16.5502 8.13977L16.1002 7.78977C15.6802 7.46977 15.2302 7.20977 14.7702 7.01977L14.2502 6.79977L13.8802 4.24977H11.1202L10.7502 6.79977L10.2202 7.00977C9.78023 7.19977 9.34023 7.44977 8.88023 7.79977L8.43023 8.12977L6.05023 7.17977L4.66023 9.56977L6.69023 11.1498L6.62023 11.7098C6.59023 11.9698 6.56023 12.2398 6.56023 12.4998C6.56023 12.7598 6.58023 13.0298 6.62023 13.2798L6.69023 13.8398L4.66023 15.4198L6.04023 17.8198L8.43023 16.8598L8.88023 17.2098C9.31023 17.5398 9.74023 17.7898 10.2102 17.9798L10.7402 18.1998L11.1202 20.7498ZM16.0002 12.4998C16.0002 14.4328 14.4332 15.9998 12.5002 15.9998C10.5672 15.9998 9.00023 14.4328 9.00023 12.4998C9.00023 10.5668 10.5672 8.99977 12.5002 8.99977C14.4332 8.99977 16.0002 10.5668 16.0002 12.4998Z" fill="white"/>
</g>
</svg>
